<?xml version="1.0" encoding="UTF-8" standalone="no"?>
<!-- Created with Inkscape (http://www.inkscape.org/) -->
<svg xmlns:rdf="http://www.w3.org/1999/02/22-rdf-syntax-ns#" xmlns="http://www.w3.org/2000/svg" xmlns:cc="http://web.resource.org/cc/" xmlns:dc="http://purl.org/dc/elements/1.1/" xmlns:svg="http://www.w3.org/2000/svg" xmlns:inkscape="http://www.inkscape.org/namespaces/inkscape" xmlns:sodipodi="http://sodipodi.sourceforge.net/DTD/sodipodi-0.dtd" xmlns:ns1="http://sozi.baierouge.fr" xmlns:xlink="http://www.w3.org/1999/xlink" id="svg2" viewBox="0 0 593.12 193.49" version="1.0" inkscape:version="0.91 r13725">
  <g id="layer1" transform="translate(-73.761 -434.65)">
    <path id="path3247" style="stroke-linejoin:round;stroke:#000000;stroke-linecap:round;stroke-width:4;fill:#784421" d="m664.88 557.4l-0.2 40.2-382.57 28.54-206.35-129.56 0.201-40.2 206.35 126.03 382.57-25.01z"/>
    <path id="path3245" style="stroke-linejoin:round;stroke:#000000;stroke-linecap:round;stroke-width:4;fill:#784421" d="m75.961 456.38l332.68-19.73 256.24 120.75-382.57 25.01-206.35-126.03z"/>
    <path id="path3243" style="stroke-linejoin:round;stroke:#000000;stroke-linecap:round;stroke-width:4;fill:#502d16" d="m664.88 557.4l-0.2 40.2-382.57 28.54 0.2-43.73 382.57-25.01z"/>
    <path id="path3239" style="stroke-linejoin:round;stroke:#000000;stroke-linecap:round;stroke-width:4;fill:#502d16" d="m133.76 468.79l27.5 15.5 243.38-17.78 149.71 72.08 26.29-1.72-175.61-87.33-271.27 19.25z"/>
    <path id="path3222" style="stroke-linejoin:round;stroke:#000000;stroke-linecap:round;stroke-width:4;fill:#784421" d="m404.64 466.51l149.71 72.08 26.29-1.72-175.61-87.33-0.39 16.97z"/>
    <path id="path3253" style="stroke-linejoin:round;stroke:#000000;stroke-linecap:round;stroke-width:4;fill:#ffdd55" d="m404.62 466.5c-22.36 1.64-44.64-7.56-67.74-3.73-23.09 3.82-29.31 10.83-57.24 12.87-28.44 2.08-73.18-12-118.36 8.64l128.41 72.41 290.93-19.81-26.28 1.71s-72.01-50.61-97.42-55.02c-25.2-4.38-52.3-17.07-52.3-17.07z"/>
    <path id="path3256" style="fill-rule:evenodd;fill:#000000;fill-opacity:.098039" d="m357.11 505.28c8.25 3.5 35-6.5 48-6.5s21-10 8-15.5-36-7-45.5 2.5-18.75 16-10.5 19.5z"/>
    <path id="path3258" style="fill-rule:evenodd;fill:#000000;fill-opacity:.098039" d="m296.74 507.76c-20.93 3.42-25.16 18.66-36.63 16.72-11.48-1.94-29.16-14.44-20.19-18.62s30.99 3.45 43.36-7.59c12.37-11.05 34.39 6.07 13.46 9.49z"/>
    <path id="path3260" style="fill-rule:evenodd;fill:#000000;fill-opacity:.098039" d="m479.16 510.53c-11.62 0.08-22.19 1.59-26.78 5.75-10.51 9.5-19 24-40 22.5-21.01-1.5-44.5-10-44 5 0.09 2.86 2.85 5.19 7.28 7.06l113.46-7.75c24.47-7 50.54-14.57 47.88-16.28-0.05-0.03-0.08-0.06-0.12-0.09-0.02-0.01-0.02-0.02-0.04-0.03-5.33-3.54-11.59-7.61-18.22-11.78 0-0.01-0.02 0-0.03 0-7.87-2.17-24.52-4.47-39.43-4.38z"/>
    <g id="g3305" transform="translate(26.153 -23.274)">
      <path id="path3314" style="fill-rule:evenodd;fill:#000000;fill-opacity:.39216" d="m322.5 507.11c11 4.5 25.25 3.5 27-1.25s16.25-2 16.25-2l3.5-7.75s-16.75 3.75-21-0.5-19.75-1.75-19.75-1.75l-6 13.25z" transform="translate(-26.153 23.274)"/>
      <path id="path3286" style="stroke-linejoin:round;fill-rule:evenodd;stroke:#000000;stroke-width:4;fill:#ff00ff" d="m318.31 481.43c-5.25-0.55-13.01 18.07-16.04 21.66-2.79 3.33-7.18-7.88-16.58 2.95-9.63 11.1-6.49 13.68 1.48 20.94 3.35 3.04 17.66 3.55 21.48-1.01 9.8-11.28-2.11-13.72 0.59-16.83 2.69-3.11 19.41-13.99 19.19-18.93-0.22-4.93-4.87-8.24-10.12-8.78z"/>
      <path id="path3292" style="fill-rule:evenodd;fill:#000000;fill-opacity:.39216" d="m293.45 505.42c-3.36 0.79-10.08 9.72-9.72 11.84 0.35 2.12 5.92-1.02 7.95-3.89 2.11-2.99 5.13-8.75 1.77-7.95z"/>
      <path id="path3294" style="fill-rule:evenodd;fill:#000000;fill-opacity:.39216" d="m309.08 504.62c1.24 0.71 15.77-13.48 15.91-14.85 0.15-1.37-0.49-2.52-1.9-2.2-1.28 0.29-15.19 16.38-14.01 17.05z"/>
    </g>
    <g id="g3300" transform="translate(10.475 -1.2929)">
      <path id="path3312" style="fill-rule:evenodd;fill:#000000;fill-opacity:.39216" d="m353.59 533.33c9-2.75 20-4.25 26.75 0.25 5.54 3.69 17.36 0.19 17.5-9.25 0.11-7.46-14.5-9.25-14.5-9.25l-29.75 18.25z"/>
      <path id="path3271" style="stroke-linejoin:round;stroke:#000000;stroke-linecap:round;stroke-width:4.9095;fill:#00d400" d="m350.09 494.28c-1.1 4.12-3.12 24.81-4 28.13-0.89 3.32 3.79 12.09 10.97 6.81 8.61-6.32 21.57-1.89 22.46-5.21s7.24-15.49 8.34-19.61c1.11-4.13-6.45-9.75-16.88-12.54-10.42-2.79-19.78-1.71-20.89 2.42z"/>
      <path id="path3267" style="stroke-linejoin:round;stroke:#000000;stroke-linecap:round;stroke-width:4.6722;fill:#008000" d="m398.01 479.36a22.888 9.0217 0 1 1 -45.77 0 22.888 9.0217 0 1 1 45.77 0z" transform="matrix(-.82509 -.22108 -.22209 .82884 784.95 184.96)"/>
      <path id="path3296" style="fill-rule:evenodd;fill:#000000;fill-opacity:.39216" d="m380.07 511.25c-1.72-0.6-8.84-1.24-9.72 5.13-0.91 6.53 3.78 5.96 5.83 4.94 2.11-1.04 5.66-9.45 3.89-10.07z"/>
      <path id="path3310" style="fill-rule:evenodd;fill:#000000;fill-opacity:.39216" d="m366.63 494.81c-1.85-2.11-11.11-1.59-12.72 0.18-1.83 1.99 8.73 8.08 10.78 7.07 2.11-1.05 3.89-5.04 1.94-7.25z"/>
    </g>
  </g>
  <metadata>
    <rdf:RDF>
      <cc:Work>
        <dc:format>image/svg+xml</dc:format>
        <dc:type rdf:resource="http://purl.org/dc/dcmitype/StillImage"/>
        <cc:license rdf:resource="http://creativecommons.org/licenses/publicdomain/"/>
        <dc:publisher>
          <cc:Agent rdf:about="http://openclipart.org/">
            <dc:title>Openclipart</dc:title>
          </cc:Agent>
        </dc:publisher>
        <dc:title>Sandbox</dc:title>
        <dc:date>2008-07-12T13:39:42</dc:date>
        <dc:description/>
        <dc:source>https://openclipart.org/detail/17756/sandbox-by-lemmling</dc:source>
        <dc:creator>
          <cc:Agent>
            <dc:title>lemmling</dc:title>
          </cc:Agent>
        </dc:creator>
        <dc:subject>
          <rdf:Bag>
            <rdf:li>cartoon</rdf:li>
            <rdf:li>colour</rdf:li>
            <rdf:li>playground</rdf:li>
            <rdf:li>sand</rdf:li>
            <rdf:li>sandbox</rdf:li>
            <rdf:li>sandpit</rdf:li>
          </rdf:Bag>
        </dc:subject>
      </cc:Work>
      <cc:License rdf:about="http://creativecommons.org/licenses/publicdomain/">
        <cc:permits rdf:resource="http://creativecommons.org/ns#Reproduction"/>
        <cc:permits rdf:resource="http://creativecommons.org/ns#Distribution"/>
        <cc:permits rdf:resource="http://creativecommons.org/ns#DerivativeWorks"/>
      </cc:License>
    </rdf:RDF>
  </metadata>
</svg>
